<svg version="1.1" viewBox="0.0 0.0 16.0 16.0" fill="none" stroke="none" stroke-linecap="square" stroke-miterlimit="10" xmlns:xlink="http://www.w3.org/1999/xlink" xmlns="http://www.w3.org/2000/svg"><clipPath id="p.0"><path d="m0 0l16.0 0l0 16.0l-16.0 0l0 -16.0z" clip-rule="nonzero"/></clipPath><g clip-path="url(#p.0)"><path fill="#000000" fill-opacity="0.0" d="m0 0l16.0 0l0 16.0l-16.0 0z" fill-rule="evenodd"/><path fill="#000000" fill-opacity="0.0" d="m0.6929134 8.001291l0 0c0 -4.052988 3.271494 -7.338583 7.3070865 -7.338583l0 0c1.9379597 0 3.796546 0.7731699 5.16689 2.1494212c1.3703451 1.376251 2.1401968 3.2428486 2.1401968 5.1891623l0 0c0 4.052987 -3.2714949 7.338582 -7.307087 7.338582l0 0c-4.0355926 0 -7.3070865 -3.285595 -7.3070865 -7.338582z" fill-rule="evenodd"/><path stroke="#ffffff" stroke-width="1.0" stroke-linejoin="round" stroke-linecap="butt" d="m0.6929134 8.001291l0 0c0 -4.052988 3.271494 -7.338583 7.3070865 -7.338583l0 0c1.9379597 0 3.796546 0.7731699 5.16689 2.1494212c1.3703451 1.376251 2.1401968 3.2428486 2.1401968 5.1891623l0 0c0 4.052987 -3.2714949 7.338582 -7.307087 7.338582l0 0c-4.0355926 0 -7.3070865 -3.285595 -7.3070865 -7.338582z" fill-rule="evenodd"/><path fill="#0047a3" d="m0.6929134 8.0l0 0c0 -4.052987 3.271494 -7.3385825 7.3070865 -7.3385825l0 0c1.9379597 0 3.796546 0.77316993 5.16689 2.1494212c1.3703451 1.376251 2.1401968 3.2428486 2.1401968 5.1891613l0 0c0 4.052987 -3.2714949 7.338583 -7.307087 7.338583l0 0c-4.0355926 0 -7.3070865 -3.285596 -7.3070865 -7.338583z" fill-rule="evenodd"/><path fill="#000000" fill-opacity="0.0" d="m0.4056987 -7.643045E-4l16.0 0l0 16.0l-16.0 0z" fill-rule="evenodd"/><path fill="#ffffff" d="m7.0343204 5.6492352q0.8125 0 1.1562495 0.265625q0.34375095 0.265625 0.34375095 0.84375q0 0.421875 -0.25000095 0.734375q-0.234375 0.3125 -0.6406245 0.375l0 0.015625q0.328125 0.078125 0.5156245 0.34375048q0.1875 0.265625 0.1875 0.625q0 0.703125 -0.5312495 1.125q-0.515625 0.421875 -1.265625 0.421875l-2.5625 0l1.0 -4.7500005l2.046875 0zm-1.4375 1.921875l1.203125 0q0.28125 0 0.484375 -0.15625q0.203125 -0.171875 0.203125 -0.46875q0 -0.25 -0.140625 -0.359375q-0.125 -0.125 -0.390625 -0.125l-1.125 0l-0.234375 1.109375zm-0.421875 2.0156255l1.328125 0q0.34375 0 0.5625 -0.203125q0.234375 -0.203125 0.234375 -0.5625q0 -0.265625 -0.1875 -0.390625q-0.171875 -0.140625 -0.59375 -0.140625l-1.0625 0l-0.28125 1.296875zm5.681931 -3.9375005l-0.8125 3.8750005l2.28125 0l-0.171875 0.875l-3.359375 0l1.0 -4.7500005l1.0625 0z" fill-rule="nonzero"/></g></svg>